<svg width="30" height="37.5" xmlns="http://www.w3.org/2000/svg">

 <g>
  <title>background</title>
  <rect fill="none" id="canvas_background" height="402" width="582" y="-1" x="-1"/>
 </g>
 <g>
  <title>Layer 1</title>
  <g id="svg_1">
   <path id="svg_2" d="m18,15l-7,0c-0.3,0 -0.5,0.2 -0.5,0.5s0.2,0.5 0.5,0.5l7,0c0.3,0 0.5,-0.2 0.5,-0.5s-0.2,-0.5 -0.5,-0.5z" fill="none"/>
   <path id="svg_3" d="m18,17.5l-7,0c-0.3,0 -0.5,0.2 -0.5,0.5s0.2,0.5 0.5,0.5l7,0c0.3,0 0.5,-0.2 0.5,-0.5s-0.2,-0.5 -0.5,-0.5z" fill="none"/>
   <path id="svg_4" d="m18,12.5l-7,0c-0.3,0 -0.5,0.2 -0.5,0.5s0.2,0.5 0.5,0.5l7,0c0.3,0 0.5,-0.2 0.5,-0.5s-0.2,-0.5 -0.5,-0.5z" fill="none"/>
   <path id="svg_5" fill="#A7E668" d="m19,8l-9,0c-1.7,0 -3,1.3 -3,3l0,9c0,1.6 1.3,3 3,3l9,0c1.6,0 3,-1.4 3,-3l0,-9c0,-1.6 -1.4,-3 -3,-3zm-1,10.5l-7,0c-0.3,0 -0.5,-0.2 -0.5,-0.5s0.2,-0.5 0.5,-0.5l7,0c0.3,0 0.5,0.2 0.5,0.5s-0.2,0.5 -0.5,0.5zm0,-2.5l-7,0c-0.3,0 -0.5,-0.2 -0.5,-0.5s0.2,-0.5 0.5,-0.5l7,0c0.3,0 0.5,0.2 0.5,0.5s-0.2,0.5 -0.5,0.5zm0,-2.5l-7,0c-0.3,0 -0.5,-0.2 -0.5,-0.5s0.2,-0.5 0.5,-0.5l7,0c0.3,0 0.5,0.2 0.5,0.5s-0.2,0.5 -0.5,0.5z"/>
   <path id="svg_6" fill="#A7E668" d="m19,6l-7.5,0c-0.3,0 -0.5,0.2 -0.5,0.5s0.2,0.5 0.5,0.5l7.5,0c2.2,0 4,1.8 4,4l0,7.5c0,0.3 0.2,0.5 0.5,0.5s0.5,-0.2 0.5,-0.5l0,-7.5c0,-2.8 -2.2,-5 -5,-5z"/>
  </g>
 </g>
</svg>
