<svg width="920" height="1150" xmlns="http://www.w3.org/2000/svg">

 <g>
  <title>background</title>
  <rect fill="none" id="canvas_background" height="402" width="582" y="-1" x="-1"/>
 </g>
 <g>
  <title>Layer 1</title>
  <path id="svg_1" d="m333.29,270.25c15.22,-7.85 32.84,-11.1 49.85,-8.83c9.09,0.99 17.78,3.93 26.32,7.06c16.13,6.02 29.42,17.65 40.59,30.48c2.8,3.4 5.35,7.01 7.77,10.7c5.46,-9.07 12.86,-16.79 20.63,-23.9c9.47,-8.75 20.86,-15.39 33.17,-19.24c19.1,-7.17 40.7,-7.88 59.95,-0.88c15.06,5.05 28.55,15.74 35.64,30.1c5.01,10.28 5.41,22.07 3.88,33.21c-3.16,16.58 -12.92,30.93 -23.66,43.58c-14.38,16.43 -33.16,28 -51.41,39.61c-14.01,9.43 -28.71,18.09 -41.06,29.73c-11.59,10.48 -21.46,23.8 -24.63,39.37c-2.45,9.59 -1.43,20.22 3.73,28.76c7.17,11.2 18.99,19.08 31.88,22.05c18.09,4.33 37.21,3.64 55.21,-0.79c12.67,-3.62 24.5,-10.01 34.91,-18.04c-14.09,-9.25 -27.99,-19.46 -37.83,-33.38c-9.55,-12.68 -13.13,-29.35 -10.89,-44.95c2.45,-13.2 10.61,-25.52 22.43,-32.11c6.21,-3.3 13.11,-6.03 20.28,-5.49c10.45,0.38 19.68,6.63 26.56,14.11c6.75,7.09 10.73,16.3 13.35,25.61c7.38,24.7 2.52,52.66 -12.39,73.63c2.61,1.96 5.22,3.93 7.82,5.93c12.79,-15.17 28.49,-28.01 46.2,-37.02c12.93,-6.12 26.99,-11.11 41.51,-10.29c7.14,0.15 13.88,3.13 19.72,7.06c10.58,-4.02 21.86,-6.72 33.26,-5.95c12.58,1.1 25.07,4.8 35.66,11.81c11.66,7.4 22.93,16.88 37.16,18.53c9.15,0.65 17.16,-5.22 23.05,-11.65c8.75,-10.56 13.79,-25.04 10.47,-38.68c-0.6,-3.38 -2.63,-7.2 -0.5,-10.44c1.96,-3.43 7,-4.33 10.11,-1.95c2.05,1.49 2.8,4.06 3.49,6.37c3.3,13.26 2.21,27.76 -4.02,40.02c-6.18,13.08 -17.14,24.53 -31.19,28.91c-8.67,2.76 -18.12,1.29 -26.42,-2.03c-11.24,-3.82 -20.45,-11.54 -30.38,-17.74c-9.17,-5.66 -19.79,-8.6 -30.48,-9.35c-7,-0.12 -13.84,1.59 -20.49,3.57c4.21,11.09 3.43,24.01 -2.29,34.42c-3.64,6.47 -9.13,12.17 -16.16,14.89c-7.34,3.16 -16.78,3.36 -23.14,-2.02c-7.32,-7.31 -8.08,-19.18 -4.52,-28.46c3.87,-9.92 12.54,-16.79 21.08,-22.6c-8.16,-2.04 -16.63,-0.26 -24.5,2.14c-22.45,6.9 -41.64,21.83 -56.9,39.36c7.63,6.4 14.95,14.32 16.88,24.44c1.12,7.08 0.75,14.82 -3.11,21.08c-5.46,9.45 -17.02,15.07 -27.82,13.28c-4.45,-0.89 -7.84,-4.24 -10.49,-7.73c-4.79,-6.74 -6.79,-15.29 -5.89,-23.47c0.83,-9.49 5.93,-17.87 11.08,-25.62c-2.95,-2.04 -5.79,-4.22 -8.73,-6.26c-11.4,10.44 -25.44,17.82 -40.05,22.68c-14.47,4.57 -29.86,5.24 -44.92,4.72c-16.93,-0.64 -34.24,-5.22 -47.52,-16.15c-7.78,-6.54 -14.8,-14.7 -17.8,-24.59c-5.22,16.07 -19.21,27.86 -34.28,34.5c-16.3,6.5 -34.22,7.11 -51.52,5.95c-23.73,-1.35 -46.79,-11.38 -64.44,-27.19c-2.93,2.07 -5.79,4.25 -8.68,6.37c5.04,7.76 10.19,16.02 11.03,25.47c1.19,10.55 -2.51,22.05 -10.94,28.83c-3.9,3.09 -9.17,3.1 -13.87,2.52c-6.64,-1.31 -13.01,-4.75 -17.19,-10.16c-5.81,-6.95 -6.9,-16.74 -5.1,-25.36c2.28,-9.65 9.34,-17.16 16.7,-23.37c-13.99,-15.78 -30.86,-29.66 -50.77,-37.17c-9.71,-3.51 -20.31,-6.78 -30.65,-4.24c8.5,5.6 16.87,12.53 20.89,22.16c3.56,8.44 3.19,18.89 -2.26,26.46c-2.85,4.13 -7.88,6.25 -12.77,6.59c-8.48,0.57 -17.02,-3.07 -22.8,-9.22c-10.67,-10.84 -13.54,-28.24 -7.93,-42.21c-7.78,-2.26 -15.89,-4.36 -24.06,-3.34c-6.89,1.02 -13.82,2.43 -20.15,5.41c-10.85,5.08 -19.8,13.34 -30.53,18.6c-8.52,3.87 -17.76,7.22 -27.27,6.09c-11.91,-1.45 -22.11,-8.99 -29.61,-17.98c-7.64,-10.25 -13.26,-22.56 -13.32,-35.53c-0.05,-7.17 0.47,-14.67 3.57,-21.23c3.1,-5.48 12.66,-3.21 12.75,3.17c-0.65,6.03 -3.02,11.88 -2.48,18.06c1.11,14.3 8.74,28.34 20.99,36.08c5.73,3.58 12.97,4.71 19.42,2.46c15.29,-4.05 26.44,-16.1 40.62,-22.47c7.04,-3.42 14.77,-5.16 22.48,-6.32c12.62,-1.78 25.37,1.06 37.14,5.55c5.99,-4.09 12.99,-7.06 20.34,-7.09c13.95,-0.68 27.45,4.06 39.94,9.82c18.08,9.03 34.05,22.06 47.13,37.43c2.63,-1.93 5.24,-3.9 7.86,-5.86c-16.16,-22.54 -20.38,-53.21 -10.57,-79.2c3.8,-12.07 11.94,-22.71 22.73,-29.35c7.96,-4.85 18.12,-6.36 26.96,-3.12c10.66,3.44 20.01,10.81 25.39,20.69c9.18,15.19 7.64,34.68 0.7,50.43c-9.33,18.81 -26.55,31.88 -43.7,43.15c12.73,9.66 27.41,17.3 43.32,19.87c15.25,2.49 31.05,2.71 46.14,-0.91c12.73,-2.82 24.54,-10.34 31.87,-21.2c5.13,-7.93 6.85,-17.91 4.94,-27.14c-2.25,-13.56 -9.42,-25.9 -18.88,-35.72c-13.13,-14.29 -29.88,-24.39 -45.9,-35.04c-16.3,-10.36 -32.95,-20.57 -46.83,-34.15c-9.28,-9.34 -17.28,-20 -23.44,-31.64c-6.67,-12.94 -8.81,-28.12 -5.69,-42.35c3.69,-15.07 14.96,-27.27 28.27,-34.7m11.13,10.28c-11.01,4.79 -20.98,13.44 -24.92,25.05c-4.14,12.32 -1.46,26.02 4.76,37.16c7.87,14.15 18.63,26.75 31.63,36.43c13.99,10.94 29.53,19.64 44.15,29.66c13.92,9.11 27.6,18.94 38.65,31.48c8.81,9.36 15.54,20.72 19.07,33.11c4.82,-17.13 16.07,-31.64 29.26,-43.24c12.72,-11.72 27.62,-20.7 41.99,-30.19c18.3,-11.83 37.61,-23.3 51.18,-40.76c8.09,-10.32 15.67,-21.84 17.44,-35.12c1.73,-11.42 -1.65,-23.7 -9.85,-31.99c-11.12,-12.04 -27.9,-16.69 -43.78,-17.59c-14.39,0.34 -28.59,4.41 -41.35,10.98c-10.33,5.55 -18.82,13.89 -26.46,22.67c-4.42,5.02 -7.85,10.81 -10.75,16.82c8.2,20.17 11.16,42.41 8.64,64.03c-1.38,9.05 -4.63,19.3 -13.23,23.92c-5.16,2.28 -10.04,-2 -12.85,-5.95c-6.86,-9.82 -7.48,-22.37 -7.26,-33.95c-0.34,-16.47 3.45,-32.71 9.18,-48.05c-4.04,-9.78 -11.04,-18.04 -18.55,-25.37c-8.2,-8.33 -18.15,-15.03 -29.22,-18.88c-9.92,-3.75 -20.44,-6.12 -31.07,-6.21c-9.1,0.61 -18.26,2.33 -26.66,5.99m113.3,65.96c-3.15,16.24 -5.52,33.6 0,49.6c5.74,-15.93 3.25,-33.4 0,-49.6m-149.56,75.66c-7.83,9.79 -10.69,22.58 -12.03,34.79c-0.69,16.18 4.14,32.63 13.41,45.93c9.79,-6.48 19.68,-13.03 28.07,-21.31c6.86,-7.34 13.55,-15.56 15.65,-25.65c2.68,-9.66 2.43,-20.56 -2.94,-29.28c-4.32,-8.02 -12.53,-13.64 -21.42,-15.28c-8.36,-0.88 -15.61,4.8 -20.74,10.8m264.53,-4.46c-8.43,7 -13.13,18.32 -12,29.24c0.85,8 2.92,16.09 7.56,22.78c3.4,4.84 7.28,9.33 11.42,13.55c7.97,7.49 17.15,13.52 26.22,19.58c7.46,-10.14 11.58,-22.47 13.16,-34.88c1.5,-10.98 -0.77,-22.1 -4.35,-32.46c-3.33,-9.9 -10.35,-18.99 -20.14,-23.11c-7.6,-3.1 -15.77,0.75 -21.87,5.3m-381.28,102.85c3.47,3.22 8.62,5.64 13.37,4.27c3.84,-4.31 2.73,-10.92 0.01,-15.52c-4.31,-7.22 -11.68,-11.83 -18.66,-16.15c-3.78,9.08 -1.58,20.37 5.28,27.4m522.05,-15.11c-3.71,4.21 -6.24,10.15 -4.65,15.78c0.52,1.63 1.08,3.93 3.21,3.97c5.52,0.43 11.01,-2.58 14.18,-7.04c5.18,-7.09 6.4,-16.73 3.41,-24.96c-5.86,3.38 -11.62,7.15 -16.15,12.25m-435.51,42.64c-2.74,5.07 -2.85,11.7 0.33,16.6c2.04,3.16 5.59,4.97 9.16,5.83c4.12,1.49 6.1,-3.59 7.36,-6.58c3.87,-9.68 -1.62,-19.52 -6.81,-27.49c-3.78,3.45 -7.65,7.03 -10.04,11.64m349.57,-11.72c-3.39,5.83 -7.37,11.74 -7.97,18.65c-0.39,5.02 0.88,10.38 4.16,14.3c1.99,2.85 5.77,0.79 8.27,-0.21c6.43,-2.72 8.86,-10.69 7.11,-17.07c-1.69,-6.51 -6.85,-11.22 -11.57,-15.67z" fill="#FEFAE8"/>
 </g>
</svg>
