<svg width="100" height="125" xmlns="http://www.w3.org/2000/svg">

 <g>
  <title>background</title>
  <rect fill="none" id="canvas_background" height="402" width="582" y="-1" x="-1"/>
 </g>
 <g>
  <title>Layer 1</title>
  <g id="svg_1">
   <path id="svg_2" fill="rgba(54, 55, 50, 0.3)" d="m16.1,20.2l32.5,27c0,0 0.1,0.1 0.1,0.1c0.8,0.7 1.9,0.7 2.6,0c0,0 0.1,-0.1 0.1,-0.1l32.5,-27c0.1,-0.1 0.2,-0.1 0.3,-0.2c-2.5,-1.5 -5.4,-2.5 -8.5,-2.5l-51.5,0c-3.1,0 -6,0.9 -8.5,2.5c0.1,0 0.3,0.1 0.4,0.2z"/>
   <path id="svg_3" fill="rgba(54, 55, 50, 0.3)" d="m89.7,25.6c-0.2,0.3 -0.4,0.5 -0.7,0.7l-32.4,27c-1.9,1.6 -4.2,2.5 -6.6,2.5s-4.7,-0.8 -6.6,-2.5l-32.4,-27c-0.3,-0.2 -0.5,-0.5 -0.7,-0.7c-1.3,2.3 -2.1,5 -2.1,7.9l0,33c0,8.8 7.2,16 16,16l51.6,0c8.8,0 16,-7.2 16,-16l0,-33c0,-2.9 -0.8,-5.6 -2.1,-7.9z"/>
  </g>
 </g>
</svg>
