<svg width="100" height="125" xmlns="http://www.w3.org/2000/svg">

 <g>
  <title>background</title>
  <rect fill="none" id="canvas_background" height="402" width="582" y="-1" x="-1"/>
 </g>
 <g>
  <title>Layer 1</title>
  <g id="svg_1">
   <path id="svg_2" fill="#D13896" d="m13,23.999977c-0.8657,0 -1.6955,0.1728 -2.4375,0.5l37.5,31.96884c0.921,0.7848 2.954,0.7848 3.875,0l37.5,-31.96884c-0.742,-0.3272 -1.5718,-0.5 -2.4375,-0.5l-74,0zm-5.3438,3.2812c-0.4126,0.815 -0.6562,1.7395 -0.6562,2.7188l0,40.00004c0,3.324 2.676,6 6,6l74,0c3.324,0 6,-2.676 6,-6l0,-40.00004c0,-0.9793 -0.2436,-1.90381 -0.6562,-2.7188l-37.8126,32.21884c-2.5941,2.2105 -6.4683,2.2105 -9.0624,0l-37.8126,-32.21884z"/>
  </g>
 </g>
</svg>
